<?xml version="1.0" encoding="UTF-8"?>
<svg version="1.1" xmlns="http://www.w3.org/2000/svg" width="75" height="75">
<path d="M0 0 C24.75 0 49.5 0 75 0 C75 24.75 75 49.5 75 75 C50.25 75 25.5 75 0 75 C0 50.25 0 25.5 0 0 Z " fill="#04B2B2" transform="translate(0,0)"/>
<path d="M0 0 C3.49580439 1.38283402 6.72294224 3.16609804 10 5 C14.37301423 7.32006339 18.09716212 9.10857493 23 10 C25.2275263 14.4550526 24.67925079 20.598071 23.3515625 25.29296875 C20.64824155 31.26569068 16.24649818 35.06964973 10.6875 38.375 C2.09579722 40.37307041 -4.18493525 38.86610997 -11.625 34.4375 C-16.1669733 29.77600109 -19.24327146 23.95338813 -19.5625 17.375 C-19.17558461 11.30257792 -16.79793635 6.66951233 -12.375 2.5625 C-8.24905951 -0.15193453 -4.88749413 -0.73312412 0 0 Z " fill="#F1FCFC" transform="translate(34,18)"/>
<path d="M0 0 C7.316693 -0.67747157 11.68763222 1.46748258 18 5 C22.37301423 7.32006339 26.09716212 9.10857493 31 10 C33.24832901 14.49665802 32.72935884 20.75054178 31.2109375 25.43359375 C29.47230473 29.05021535 28.41968532 30.72020978 25 33 C25 32.34 25 31.68 25 31 C23.700625 31.0309375 23.700625 31.0309375 22.375 31.0625 C19 31 19 31 15.9375 30.4375 C12.64480625 29.77773521 12.64480625 29.77773521 8 31 C7.67 24.07 7.34 17.14 7 10 C5.68 10.33 4.36 10.66 3 11 C3.4640625 9.88625 3.4640625 9.88625 3.9375 8.75 C4.8094925 6.49307824 5.47667007 4.3549847 6 2 C3.03 1.505 3.03 1.505 0 1 C0 0.67 0 0.34 0 0 Z " fill="#F4FDFC" transform="translate(26,18)"/>
<path d="M0 0 C2.0625 1.625 2.0625 1.625 3 4 C2.93480059 7.71636626 2.79890124 10.04746391 0.375 12.9375 C-3.01168643 14.45259656 -5.33417263 14.52368962 -9 14 C-11.5 11.9375 -11.5 11.9375 -13 9 C-13 5.23078147 -12.77884224 2.99691807 -10.4375 0 C-6.79855457 -1.49290069 -3.7261529 -1.1446868 0 0 Z " fill="#33ACAD" transform="translate(52,34)"/>
<path d="M0 0 C2.27492349 3.41238523 2.19555565 4.36044265 1.9765625 8.32421875 C1.925 9.35224609 1.8734375 10.38027344 1.8203125 11.43945312 C1.75585938 12.51130859 1.69140625 13.58316406 1.625 14.6875 C1.56828125 15.77095703 1.5115625 16.85441406 1.453125 17.97070312 C1.31160446 20.64780007 1.16018849 23.32396576 1 26 C0.01 26 -0.98 26 -2 26 C-2.33 19.4 -2.66 12.8 -3 6 C-4.32 6.33 -5.64 6.66 -7 7 C-6.3125 4.625 -6.3125 4.625 -5 2 C-2.375 0.6875 -2.375 0.6875 0 0 Z " fill="#A9DADA" transform="translate(36,22)"/>
<path d="M0 0 C2.625 0.25 2.625 0.25 4.5 1.4375 C5.625 3.25 5.625 3.25 5.375 5.875 C4.625 8.25 4.625 8.25 3.625 9.25 C0.6875 9.4375 0.6875 9.4375 -2.375 9.25 C-3.035 8.59 -3.695 7.93 -4.375 7.25 C-3.67467427 0.38680782 -3.67467427 0.38680782 0 0 Z " fill="#DFFAFA" transform="translate(46.375,35.75)"/>
<path d="M0 0 C2.19747131 -0.29805007 2.19747131 -0.29805007 4 -1 C4.66 1.31 5.32 3.62 6 6 C3.64309641 5.11616115 1.36790657 4.20552563 -0.83203125 2.9765625 C-5.86281712 0.17837391 -9.23240674 -0.74420558 -15 0 C-19.39238284 2.28066032 -22.11697928 5.00812516 -25 9 C-25 5.75 -25 5.75 -24 2 C-17.90763854 -3.79191624 -7.03960461 -3.76680597 0 0 Z " fill="#2EAEAC" transform="translate(41,19)"/>
<path d="M0 0 C0.66 0 1.32 0 2 0 C4.24832901 4.49665802 3.72935884 10.75054178 2.2109375 15.43359375 C0.47230473 19.05021535 -0.58031468 20.72020978 -4 23 C-4 22.34 -4 21.68 -4 21 C-5.98 21 -7.96 21 -10 21 C-10 20.67 -10 20.34 -10 20 C-8.88625 19.731875 -7.7725 19.46375 -6.625 19.1875 C-2.78159049 18.34190981 -2.78159049 18.34190981 -1 15 C-0.83328148 12.5417707 -0.83328148 12.5417707 -1 10 C-1 8.68 -1 7.36 -1 6 C-0.34 6.33 0.32 6.66 1 7 C0.67 4.69 0.34 2.38 0 0 Z " fill="#D9FBFB" transform="translate(55,28)"/>
<path d="M0 0 C1.83984375 0.57421875 1.83984375 0.57421875 3.83984375 2.32421875 C4.9929508 4.91870961 5.07400856 6.76424098 4.83984375 9.57421875 C4.50984375 8.25421875 4.17984375 6.93421875 3.83984375 5.57421875 C3.20046875 5.42984375 2.56109375 5.28546875 1.90234375 5.13671875 C-0.16015625 4.57421875 -0.16015625 4.57421875 -1.16015625 3.57421875 C-3.61825623 3.32414145 -3.61825623 3.32414145 -6.16015625 3.57421875 C-6.82015625 4.23421875 -7.48015625 4.89421875 -8.16015625 5.57421875 C-8.16015625 4.91421875 -8.16015625 4.25421875 -8.16015625 3.57421875 C-8.82015625 3.24421875 -9.48015625 2.91421875 -10.16015625 2.57421875 C-6.91836354 -0.80264866 -4.35987692 -0.75506248 0 0 Z " fill="#36ABAA" transform="translate(50.16015625,33.42578125)"/>
<path d="M0 0 C0.99 0 1.98 0 3 0 C3 4.95 3 9.9 3 15 C2.01 15 1.02 15 0 15 C0 10.05 0 5.1 0 0 Z " fill="#31A7A8" transform="translate(34,33)"/>
<path d="M0 0 C0.33 0.66 0.66 1.32 1 2 C1.99 2.33 2.98 2.66 4 3 C3.79375 4.0725 3.5875 5.145 3.375 6.25 C3.0123809 9.87619096 3.01637931 11.08291076 5 14 C2.64561267 15.42944945 1.51967567 16.08661261 -1.25 15.625 C-1.8275 15.41875 -2.405 15.2125 -3 15 C-2.01 15 -1.02 15 0 15 C0 10.05 0 5.1 0 0 Z " fill="#D2FCFB" transform="translate(37,33)"/>
<path d="M0 0 C0.99 0.33 1.98 0.66 3 1 C-0.75 6.875 -0.75 6.875 -3 8 C-3 7.34 -3 6.68 -3 6 C-4.98 6 -6.96 6 -9 6 C-9 5.67 -9 5.34 -9 5 C-7.88625 4.731875 -6.7725 4.46375 -5.625 4.1875 C-1.78159049 3.34190981 -1.78159049 3.34190981 0 0 Z " fill="#C8F8F7" transform="translate(54,43)"/>
<path d="M0 0 C0.66 0 1.32 0 2 0 C2.25 2.8125 2.25 2.8125 2 6 C0.1875 7.875 0.1875 7.875 -2 9 C-2.99 9 -3.98 9 -5 9 C-5 8.34 -5 7.68 -5 7 C-4.360625 6.54625 -3.72125 6.0925 -3.0625 5.625 C-0.7323843 3.78915127 -0.39598702 2.87090587 0 0 Z " fill="#22A5A4" transform="translate(52,39)"/>
<path d="M0 0 C1.2065625 0.0309375 1.2065625 0.0309375 2.4375 0.0625 C1.4475 1.5475 1.4475 1.5475 0.4375 3.0625 C-0.24427416 4.38817199 -0.91441436 5.72003688 -1.5625 7.0625 C-2.5525 7.0625 -3.5425 7.0625 -4.5625 7.0625 C-3.5234375 0.0859375 -3.5234375 0.0859375 0 0 Z " fill="#D2F6F4" transform="translate(46.5625,35.9375)"/>
<path d="M0 0 C2.125 0.375 2.125 0.375 4 1 C4.33 2.98 4.66 4.96 5 7 C1.34683329 5.75023244 0.21934164 5.32901247 -2 2 C-1.34 1.34 -0.68 0.68 0 0 Z " fill="#16AFAC" transform="translate(42,18)"/>
<path d="M0 0 C4.92127034 -0.16682272 8.50343896 -0.24828052 13 2 C12.01 2.33 11.02 2.66 10 3 C10 3.66 10 4.32 10 5 C8.68 5.33 7.36 5.66 6 6 C6 4.68 6 3.36 6 2 C3.03 1.505 3.03 1.505 0 1 C0 0.67 0 0.34 0 0 Z " fill="#D7F9F9" transform="translate(26,18)"/>
<path d="M0 0 C0 0.99 0 1.98 0 3 C-3.77222089 4.75163456 -6.666639 5.22490027 -10.8125 5.125 C-12.27623047 5.09792969 -12.27623047 5.09792969 -13.76953125 5.0703125 C-14.50558594 5.04710937 -15.24164063 5.02390625 -16 5 C-16 4.67 -16 4.34 -16 4 C-15.18015625 3.87882812 -14.3603125 3.75765625 -13.515625 3.6328125 C-12.43796875 3.46523438 -11.3603125 3.29765625 -10.25 3.125 C-9.18265625 2.96257813 -8.1153125 2.80015625 -7.015625 2.6328125 C-4.32291129 2.06776118 -2.36427561 1.36577086 0 0 Z " fill="#2EABAC" transform="translate(49,53)"/>
<path d="M0 0 C3 1 3 1 5 4 C5.125 6.6875 5.125 6.6875 5 9 C4.67 7.68 4.34 6.36 4 5 C3.360625 4.87625 2.72125 4.7525 2.0625 4.625 C1.381875 4.41875 0.70125 4.2125 0 4 C-0.33 3.34 -0.66 2.68 -1 2 C-0.67 1.34 -0.34 0.68 0 0 Z " fill="#47B3B2" transform="translate(50,34)"/>
<path d="M0 0 C2.97 1.65 5.94 3.3 9 5 C5 6 5 6 2.8125 5.3125 C1 4 1 4 0 0 Z " fill="#D6FAF9" transform="translate(40,21)"/>
<path d="M0 0 C0.33 0.66 0.66 1.32 1 2 C1.99 2.33 2.98 2.66 4 3 C3.34 5.97 2.68 8.94 2 12 C1.67 12 1.34 12 1 12 C0.67 8.04 0.34 4.08 0 0 Z " fill="#0AABA7" transform="translate(58,28)"/>
<path d="M0 0 C0.99 0 1.98 0 3 0 C1.62845496 2.95409701 0.01136276 5.44008376 -2 8 C-1.125 1.125 -1.125 1.125 0 0 Z " fill="#18ABA7" transform="translate(18,20)"/>
</svg>
